<?xml version="1.0" standalone="no"?>
<!DOCTYPE svg PUBLIC "-//W3C//DTD SVG 20010904//EN"
 "http://www.w3.org/TR/2001/REC-SVG-20010904/DTD/svg10.dtd">
<svg version="1.0" xmlns="http://www.w3.org/2000/svg"
 width="256.000000pt" height="256.000000pt" viewBox="0 0 256.000000 256.000000"
 preserveAspectRatio="xMidYMid meet">
<metadata>
Created by potrace 1.11, written by Peter Selinger 2001-2013
</metadata>
<g transform="translate(0.000000,256.000000) scale(0.100000,-0.100000)"
fill="#000000" stroke="none">
<path d="M1340 2460 c0 -6 -27 -10 -60 -10 -49 0 -60 -3 -60 -17 0 -9 -3 -14
-6 -10 -4 3 -19 0 -35 -9 -16 -8 -32 -15 -36 -17 -5 -1 -7 -5 -5 -9 1 -5 -2
-8 -7 -8 -4 0 -20 -12 -35 -26 l-26 -27 0 -218 c0 -139 4 -219 10 -219 6 0 10
-42 10 -106 0 -67 4 -103 10 -99 9 6 11 0 13 -42 1 -10 6 -21 12 -25 5 -4 10
-21 11 -38 0 -27 -2 -30 -33 -30 -18 0 -33 5 -33 10 0 6 -16 10 -35 10 -19 0
-35 -4 -35 -10 0 -5 -9 -10 -19 -10 -11 0 -21 -5 -23 -12 -3 -8 -28 -12 -68
-13 -57 0 -68 3 -92 27 -15 15 -28 36 -28 48 0 11 -6 19 -12 17 -7 -1 -12 4
-11 11 2 6 -3 12 -10 12 -10 0 -13 19 -12 75 1 41 -1 75 -4 76 -49 8 -61 5
-61 -18 0 -19 -5 -23 -33 -23 l-33 0 1 -77 c0 -43 3 -83 7 -89 4 -6 -2 -17
-13 -24 -12 -9 -19 -26 -19 -47 0 -18 -4 -33 -10 -33 -6 0 -10 -63 -10 -170 0
-107 4 -170 10 -170 6 0 10 -21 10 -46 0 -27 4 -43 10 -39 6 3 10 -1 10 -9 0
-9 7 -13 19 -11 11 2 22 -2 24 -9 6 -15 55 -15 65 -1 6 9 26 11 70 6 9 -1 11
-8 7 -21 -5 -15 -2 -20 11 -20 10 0 15 -3 11 -6 -8 -8 25 -44 35 -38 4 3 8 -2
8 -11 0 -9 4 -14 9 -11 4 3 17 -1 27 -9 13 -10 46 -14 107 -15 53 0 87 -4 87
-10 0 -6 -7 -13 -15 -16 -8 -4 -12 -10 -9 -15 3 -5 0 -9 -6 -9 -18 0 -40 -27
-40 -50 0 -12 -4 -18 -10 -15 -5 3 -10 -1 -10 -9 0 -9 -6 -16 -14 -16 -10 0
-13 -7 -11 -20 2 -12 -2 -23 -9 -26 -8 -3 -12 -20 -11 -44 1 -28 -2 -40 -12
-40 -9 0 -13 -14 -13 -45 0 -25 4 -45 9 -45 5 0 12 -11 15 -25 4 -14 11 -25
17 -25 6 0 8 -4 5 -8 -3 -5 6 -15 19 -22 19 -10 25 -22 25 -46 0 -18 5 -34 11
-36 6 -2 12 -24 14 -49 4 -42 1 -48 -37 -87 -22 -23 -45 -42 -50 -42 -5 0 -7
-4 -4 -9 11 -17 -5 -40 -25 -36 -10 2 -20 0 -20 -6 -1 -5 -2 -15 -3 -21 -4
-31 29 -37 189 -38 151 0 162 1 178 21 17 19 17 25 5 57 -17 44 -17 84 -1 104
7 7 10 30 9 51 -2 26 1 37 10 37 8 0 14 7 14 16 0 8 5 12 10 9 6 -4 10 5 10
19 0 17 5 26 16 26 10 0 14 6 11 14 -3 7 1 23 8 34 8 10 12 22 8 25 -3 4 2 9
11 13 9 3 16 17 16 31 0 13 4 21 10 18 6 -3 10 1 10 10 0 9 4 14 9 11 12 -8
42 4 36 13 -2 4 1 8 8 7 12 0 53 -36 41 -36 -3 0 1 -7 10 -15 8 -8 19 -15 25
-15 6 0 11 -12 11 -26 0 -14 4 -23 10 -19 6 3 10 -2 10 -12 0 -20 91 -123 108
-123 6 0 9 -9 7 -20 -2 -12 2 -23 10 -27 19 -7 22 -165 4 -161 -6 2 -13 -6
-15 -16 -6 -38 23 -45 184 -46 l152 0 0 55 c0 40 -4 55 -14 55 -9 0 -13 10
-11 31 2 18 -3 33 -10 36 -8 2 -12 13 -10 24 2 12 -2 19 -11 19 -8 0 -14 9
-14 19 0 11 -4 23 -10 26 -5 3 -10 17 -10 31 0 14 4 22 10 19 6 -4 10 8 10 29
0 19 6 39 13 43 9 6 13 38 13 118 l-1 109 -50 51 c-27 29 -53 50 -57 48 -5 -2
-8 7 -8 21 0 14 -4 26 -10 26 -5 0 -10 11 -10 25 0 14 -5 24 -12 22 -18 -3
-17 51 2 73 10 11 26 20 37 20 15 0 20 6 19 23 -1 13 4 21 12 19 8 -1 11 6 8
23 -4 21 -1 25 20 25 l24 0 0 126 c0 81 -4 123 -10 119 -6 -4 -10 11 -10 38 0
27 -6 49 -15 57 -8 7 -13 16 -10 20 3 5 -5 17 -18 27 -12 10 -29 27 -37 38 -8
11 -24 21 -35 21 -14 -1 -19 6 -18 19 1 11 -3 22 -8 26 -6 3 3 18 20 32 28 23
31 31 31 84 0 33 4 63 9 69 8 7 16 410 12 577 -1 22 -5 27 -27 27 -14 0 -23 4
-19 10 4 6 -5 10 -19 10 -17 0 -26 6 -26 16 0 8 -4 12 -10 9 -5 -3 -10 1 -10
10 0 9 -4 14 -9 11 -13 -8 -42 4 -35 15 3 5 -11 9 -30 9 -19 0 -38 5 -41 10
-4 6 -63 10 -146 10 -86 0 -139 -4 -139 -10z"/>
</g>
</svg>
